<svg width="94" height="29" viewBox="0 0 94 29" fill="none" xmlns="http://www.w3.org/2000/svg">
<path d="M31.8068 21H27.5455L34.7614 6.45455H40.1591L42.5455 21H38.2841L36.8636 10.4602H36.75L31.8068 21ZM31.9773 15.2614H39.9886L39.4773 18.2159H31.4659L31.9773 15.2614ZM49.2021 10.0909L50.2248 13.4716L52.4691 10.0909H56.3612L52.5259 15.5455L54.685 21H50.8214L49.543 17.5341L47.185 21H43.2646L47.2702 15.5455L45.2816 10.0909H49.2021ZM60.793 21.1989C59.6093 21.1989 58.6339 20.9645 57.8668 20.4957C57.0998 20.0223 56.5624 19.3641 56.2546 18.5213C55.9469 17.6738 55.8877 16.6913 56.0771 15.5739C56.257 14.4564 56.6405 13.4763 57.2276 12.6335C57.8195 11.786 58.5771 11.1278 59.5004 10.6591C60.4284 10.1856 61.4843 9.94886 62.668 9.94886C63.738 9.94886 64.6306 10.143 65.3455 10.5312C66.0652 10.9148 66.579 11.4593 66.8867 12.1648C67.1992 12.8655 67.2797 13.6894 67.1282 14.6364H63.4918C63.5344 14.0682 63.4421 13.6326 63.2148 13.3295C62.9923 13.0265 62.668 12.875 62.2418 12.875C61.8915 12.875 61.5695 12.9744 61.2759 13.1733C60.9871 13.3674 60.7385 13.6634 60.5302 14.0611C60.3266 14.4541 60.1774 14.9489 60.0827 15.5455C59.988 16.142 59.9762 16.6392 60.0472 17.0369C60.123 17.4299 60.2698 17.7259 60.4876 17.9247C60.7101 18.1188 60.9918 18.2159 61.3327 18.2159C61.6263 18.2159 61.8962 18.1496 62.1424 18.017C62.3933 17.8797 62.6088 17.6809 62.7887 17.4205C62.9734 17.1553 63.113 16.8333 63.2077 16.4545H66.8441C66.6642 17.4205 66.302 18.2585 65.7575 18.9688C65.2129 19.679 64.5193 20.2282 63.6765 20.6165C62.8337 21.0047 61.8725 21.1989 60.793 21.1989ZM72.9219 21.1989C71.7382 21.1989 70.7628 20.9645 69.9957 20.4957C69.2334 20.0223 68.6984 19.3641 68.3906 18.5213C68.0829 17.6738 68.0213 16.6913 68.206 15.5739C68.3906 14.4564 68.7765 13.4763 69.3636 12.6335C69.9508 11.786 70.706 11.1278 71.6293 10.6591C72.5526 10.1856 73.6084 9.94886 74.7969 9.94886C75.9759 9.94886 76.9465 10.1856 77.7088 10.6591C78.4759 11.1278 79.0133 11.786 79.321 12.6335C79.6335 13.4763 79.6974 14.4564 79.5128 15.5739C79.3281 16.6913 78.9399 17.6738 78.348 18.5213C77.7562 19.3641 76.9986 20.0223 76.0753 20.4957C75.1567 20.9645 74.1056 21.1989 72.9219 21.1989ZM73.4048 18.3011C73.7457 18.3011 74.0559 18.1899 74.3352 17.9673C74.6193 17.7448 74.8608 17.4276 75.0597 17.0156C75.2633 16.6037 75.4124 16.1136 75.5071 15.5455C75.6018 14.9725 75.616 14.4825 75.5497 14.0753C75.4834 13.6634 75.3461 13.3461 75.1378 13.1236C74.9295 12.901 74.6548 12.7898 74.3139 12.7898C73.973 12.7898 73.6605 12.901 73.3764 13.1236C73.0923 13.3461 72.8509 13.6634 72.652 14.0753C72.4531 14.4825 72.3063 14.9725 72.2116 15.5455C72.117 16.1136 72.1004 16.6037 72.1619 17.0156C72.2282 17.4276 72.3655 17.7448 72.5739 17.9673C72.7869 18.1899 73.0639 18.3011 73.4048 18.3011ZM85.1662 14.8636L84.1435 21H80.223L82.0412 10.0909H85.7628L85.4219 12.1648H85.5355C85.8812 11.4687 86.3854 10.9266 87.0483 10.5384C87.7159 10.1454 88.4522 9.94886 89.2571 9.94886C90.0289 9.94886 90.6705 10.1241 91.1818 10.4744C91.6932 10.8248 92.0554 11.3078 92.2685 11.9233C92.4815 12.5388 92.5194 13.2443 92.3821 14.0398L91.2173 21H87.2969L88.3196 14.8636C88.4096 14.3239 88.3433 13.9001 88.1207 13.5923C87.9029 13.2846 87.5431 13.1307 87.0412 13.1307C86.724 13.1307 86.4328 13.2017 86.1676 13.3438C85.9072 13.4811 85.6894 13.6799 85.5142 13.9403C85.3438 14.196 85.2277 14.5038 85.1662 14.8636Z" fill="white"/>
<g filter="url(#filter0_i_107_6)">
<path fill-rule="evenodd" clip-rule="evenodd" d="M10.6066 10.6067L7.07112 14.1422L10.6066 17.6777L7.07107 21.2132L10.6066 24.7488L14.1422 21.2132L17.6777 24.7488L21.2133 21.2132L17.6777 17.6777L21.2132 14.1422L17.6777 10.6067L21.2133 7.07108L17.6777 3.53555L14.1421 7.07112L10.6066 3.53557L7.07107 7.07111L10.6066 10.6067Z" fill="url(#paint0_linear_107_6)"/>
</g>
<defs>
<filter id="filter0_i_107_6" x="7.07106" y="3.53555" width="14.1422" height="23.2132" filterUnits="userSpaceOnUse" color-interpolation-filters="sRGB">
<feFlood flood-opacity="0" result="BackgroundImageFix"/>
<feBlend mode="normal" in="SourceGraphic" in2="BackgroundImageFix" result="shape"/>
<feColorMatrix in="SourceAlpha" type="matrix" values="0 0 0 0 0 0 0 0 0 0 0 0 0 0 0 0 0 0 127 0" result="hardAlpha"/>
<feOffset dy="2"/>
<feGaussianBlur stdDeviation="1"/>
<feComposite in2="hardAlpha" operator="arithmetic" k2="-1" k3="1"/>
<feColorMatrix type="matrix" values="0 0 0 0 0 0 0 0 0 0 0 0 0 0 0 0 0 0 0.25 0"/>
<feBlend mode="normal" in2="shape" result="effect1_innerShadow_107_6"/>
</filter>
<linearGradient id="paint0_linear_107_6" x1="14.1421" y1="3.39215" x2="14.1421" y2="25.1422" gradientUnits="userSpaceOnUse">
<stop stop-color="#B26DCD"/>
<stop offset="1" stop-color="#552CA1"/>
</linearGradient>
</defs>
</svg>
